<?xml version="1.0" standalone="no"?>
<!DOCTYPE svg PUBLIC "-//W3C//DTD SVG 20010904//EN"
 "http://www.w3.org/TR/2001/REC-SVG-20010904/DTD/svg10.dtd">
<svg version="1.0" xmlns="http://www.w3.org/2000/svg"
 width="769.000000pt" height="769.000000pt" viewBox="0 0 769.000000 769.000000"
 preserveAspectRatio="xMidYMid meet">
<metadata>
Created by potrace 1.11, written by Peter Selinger 2001-2013
</metadata>
<g transform="translate(0.000000,769.000000) scale(0.100000,-0.100000)"
fill="#000000" stroke="none">
<path d="M1520 7673 c-85 -13 -250 -75 -250 -94 0 -5 -7 -9 -15 -9 -23 0 -157
-139 -193 -202 -18 -31 -45 -89 -60 -130 l-27 -73 -3 -2973 c-3 -3313 -8
-3044 69 -3200 47 -96 148 -207 237 -260 59 -36 184 -81 241 -87 20 -2 192 -5
384 -6 l347 -1 0 -320 0 -319 84 68 c46 37 113 90 148 118 34 27 65 52 68 55
3 3 37 30 75 60 39 30 75 59 81 65 6 5 23 19 38 30 16 11 34 26 42 33 8 7 51
42 96 78 46 36 92 72 103 82 68 59 51 62 177 -37 62 -50 118 -94 123 -99 6 -4
82 -65 170 -135 88 -71 169 -136 180 -145 11 -9 64 -51 118 -94 l97 -78 0 320
0 320 1143 1 c628 0 1151 2 1162 4 11 1 37 5 57 8 38 6 139 38 148 47 3 3 19
12 35 20 151 74 278 245 322 432 10 42 10 5983 1 6024 -44 185 -175 352 -339
433 -154 76 39 71 -2529 69 -1268 0 -2316 -2 -2330 -5z"/>
</g>
</svg>
